<?xml version="1.0" encoding="UTF-8" standalone="no"?>
<svg width="548px" height="328px" viewBox="0 0 548 328" version="1.1" xmlns="http://www.w3.org/2000/svg" xmlns:xlink="http://www.w3.org/1999/xlink">
    <!-- Generator: Sketch 43 (38999) - http://www.bohemiancoding.com/sketch -->
    <title>contact-headline</title>
    <desc>Created with Sketch.</desc>
    <defs></defs>
    <g id="Website" stroke="none" stroke-width="1" fill="none" fill-rule="evenodd">
        <g id="contact" transform="translate(-446.000000, -198.000000)">
            <g id="contact-headline" transform="translate(446.000000, 198.000000)">
                <g id="Group-3" transform="translate(74.000000, 90.000000)">
                    <g id="logo-wordmark-white" fill="#FF8552">
                        <g id="logo">
                            <g id="logo-icon">
                                <path d="M42.8798738,28.7683625 L42.8722951,28.7607839 L42.8647165,28.7683625 C42.862193,28.7658357 42.8596684,28.7633094 42.8571429,28.7607839 C36.589228,22.492869 26.4201462,22.4996529 20.1438629,28.7759362 C13.8675796,35.0522194 13.8607957,45.2213012 20.1287106,51.4892161 C20.2687528,51.6292583 20.4107425,51.7661682 20.5545926,51.8999459 L40.9458017,72.2911549 C41.9936232,73.3389765 43.6920767,73.3372577 44.7407111,72.2886233 L65.1437032,51.8856311 C65.2878309,51.751576 65.4300998,51.6143869 65.5704228,51.4740638 C71.8467061,45.1977806 71.85349,35.0286988 65.5855751,28.7607839 C59.3201824,22.4953912 49.1567618,22.4996485 42.8798738,28.7683625 Z M40.9463869,105.142636 C40.9463869,105.142636 0,66.4377873 0,42.8 C0,19.1622127 19.1877964,-7.10542736e-15 42.8571429,-7.10542736e-15 C66.5264893,-7.10542736e-15 85.7142857,19.1622127 85.7142857,42.8 C85.7142857,66.4377873 44.7818837,105.128836 44.7818837,105.128836 C43.7229153,106.16634 42.0016683,106.16843 40.9463869,105.142636 Z" id="Combined-Shape"></path>
                            </g>
                        </g>
                        <g id="Group-2" transform="translate(112.500000, 0.000000)">
                            <g id="Group">
                                <path d="M24.5351333,17.12 C24.1494214,17.12 23.8119235,17.3604494 23.6672816,17.6970787 L15.6155459,37.7505618 L7.61202415,18.2260674 C7.4191682,17.7451685 6.98524233,17.4566292 6.50310247,17.4566292 L0.52456817,17.4566292 C0.13885628,17.4566292 -0.102213651,17.8413483 0.0424283079,18.2260674 L14.7959081,50.8791011 C14.9405501,51.1676404 15.229834,51.36 15.5673319,51.36 C15.9048298,51.36 16.1941137,51.1676404 16.2905417,50.8791011 L24.5351333,31.9316854 L32.779725,50.8791011 C32.8761529,51.1676404 33.1654369,51.36 33.5029348,51.36 C33.8404327,51.36 34.1297166,51.1676404 34.2261446,50.8791011 L49.0278383,18.2260674 C49.1724803,17.8413483 48.9314104,17.4566292 48.5456985,17.4566292 L42.5671642,17.4566292 C42.0850243,17.4566292 41.6028845,17.7451685 41.4582425,18.2260674 L33.4547208,37.7505618 L25.4029851,17.6970787 C25.2583431,17.3604494 24.9208452,17.12 24.5351333,17.12 Z M72.3634077,37.654382 C72.7973336,37.654382 73.1830454,37.2696629 73.1830454,36.8368539 L73.1830454,32.2202247 C73.1830454,31.7874157 72.7973336,31.4026966 72.3634077,31.4026966 L60.550981,31.4026966 L60.550981,23.7083146 L75.8830287,23.7083146 C76.3169546,23.7083146 76.7026664,23.3235955 76.7026664,22.8907865 L76.7026664,18.2741573 C76.7026664,17.8413483 76.3169546,17.4566292 75.8830287,17.4566292 L54.5724468,17.4566292 C54.1385209,17.4566292 53.752809,17.8413483 53.752809,18.2741573 L53.752809,50.3020225 C53.752809,50.7348315 54.1385209,51.1195506 54.5724468,51.1195506 L75.8830287,51.1195506 C76.3169546,51.1195506 76.7026664,50.7348315 76.7026664,50.3020225 L76.7026664,45.6853933 C76.7026664,45.2525843 76.3169546,44.8678652 75.8830287,44.8678652 L60.550981,44.8678652 L60.550981,37.654382 L72.3634077,37.654382 Z" id="WE"></path>
                                <path d="M124.666029,0.143865546 C124.089082,0.143865546 123.584253,0.503529412 123.367898,1.00705882 L111.324125,31.0030252 L99.3524708,1.79831933 C99.0639972,1.0789916 98.4149316,0.647394958 97.6937476,0.647394958 L88.7510661,0.647394958 C88.1741189,0.647394958 87.8135269,1.22285714 88.0298821,1.79831933 L110.098112,50.6406723 C110.314468,51.0722689 110.747178,51.36 111.252007,51.36 C111.756836,51.36 112.189546,51.0722689 112.333783,50.6406723 L124.666029,22.2991597 L136.998275,50.6406723 C137.142512,51.0722689 137.575223,51.36 138.080051,51.36 C138.58488,51.36 139.017591,51.0722689 139.161827,50.6406723 L161.302176,1.79831933 C161.518531,1.22285714 161.157939,0.647394958 160.580992,0.647394958 L151.638311,0.647394958 C150.917127,0.647394958 150.195943,1.0789916 149.979587,1.79831933 L138.007933,31.0030252 L125.96416,1.00705882 C125.747805,0.503529412 125.242976,0.143865546 124.666029,0.143865546 Z M177.673053,0.791260504 C177.456698,0.359663866 176.951869,0 176.374922,0 C175.870093,0 175.365264,0.359663866 175.148909,0.791260504 L153.00856,49.9213445 C152.792205,50.4248739 153.152797,51.0003361 153.729744,51.0003361 L162.672426,51.0003361 C163.39361,51.0003361 164.042675,50.5687395 164.331149,49.8494118 L168.658253,39.2033613 L184.235827,39.2033613 L188.63505,49.8494118 C188.851405,50.5687395 189.572589,51.0003361 190.293773,51.0003361 L199.164336,51.0003361 C199.741283,51.0003361 200.101875,50.4248739 199.88552,49.9213445 L177.673053,0.791260504 Z M176.44704,19.8534454 L180.990499,31.1468908 L171.903581,31.1468908 L176.44704,19.8534454 Z M217.121817,1.8702521 C217.121817,1.22285714 216.54487,0.647394958 215.895805,0.647394958 L208.107017,0.647394958 C207.457952,0.647394958 206.881005,1.22285714 206.881005,1.8702521 L206.881005,49.777479 C206.881005,50.4248739 207.457952,51.0003361 208.107017,51.0003361 L234.790825,51.0003361 C235.439891,51.0003361 236.016838,50.4248739 236.016838,49.777479 L236.016838,42.8719328 C236.016838,42.2245378 235.439891,41.6490756 234.790825,41.6490756 L217.121817,41.6490756 L217.121817,1.8702521 Z M253.685846,51.0003361 C254.334912,51.0003361 254.911859,50.4248739 254.911859,49.777479 L254.911859,29.7801681 L273.662643,50.1371429 C274.23959,50.712605 274.960774,51.0003361 275.754076,51.0003361 L285.562179,51.0003361 C286.067007,51.0003361 286.283363,50.4248739 285.994889,50.0652101 L262.700646,25.032605 L284.264047,1.58252101 C284.552521,1.22285714 284.336166,0.647394958 283.831337,0.647394958 L274.383827,0.647394958 C273.590524,0.647394958 272.86934,1.00705882 272.364511,1.58252101 L254.911859,20.7885714 L254.911859,1.8702521 C254.911859,1.22285714 254.334912,0.647394958 253.685846,0.647394958 L245.897059,0.647394958 C245.247993,0.647394958 244.671046,1.22285714 244.671046,1.8702521 L244.671046,49.777479 C244.671046,50.4248739 245.247993,51.0003361 245.897059,51.0003361 L253.685846,51.0003361 Z" id="WALK"></path>
                            </g>
                            <path d="M8.96582511,100.379067 C8.96582511,100.815772 9.34533093,101.203954 9.77227498,101.203954 L14.9430418,101.203954 C15.3699859,101.203954 15.7494917,100.815772 15.7494917,100.379067 L15.7494917,73.5459719 L24.0037434,73.5459719 C24.4306875,73.5459719 24.8101933,73.1577897 24.8101933,72.7210847 L24.8101933,68.0628982 C24.8101933,67.6261932 24.4306875,67.238011 24.0037434,67.238011 L0.806449877,67.238011 C0.379505825,67.238011 0,67.6261932 0,68.0628982 L0,72.7210847 C0,73.1577897 0.379505825,73.5459719 0.806449877,73.5459719 L8.96582511,73.5459719 L8.96582511,100.379067 Z M48.0528625,66.6557377 C35.3868556,66.6557377 31.5443591,77.0881346 31.5443591,84.1724599 C31.5443591,91.4508764 35.3868556,101.737705 48.0528625,101.737705 C60.6239929,101.737705 64.4664894,91.4508764 64.4664894,84.1724599 C64.4664894,77.0881346 60.6239929,66.6557377 48.0528625,66.6557377 Z M48.0528625,95.3812212 C39.5614197,95.3812212 38.375464,86.9382582 38.375464,84.1724599 C38.375464,81.4066617 39.5614197,73.0607442 48.0528625,73.0607442 C56.4019906,73.0607442 57.6353846,81.4066617 57.6353846,84.1724599 C57.6353846,86.9382582 56.4019906,95.3812212 48.0528625,95.3812212 Z M96.2480397,89.3158742 L96.2480397,93.6344013 C95.062084,94.7019024 92.6427344,95.3812212 90.7926435,95.3812212 C82.3012006,95.3812212 81.1152449,86.8412126 81.1152449,84.0754144 C81.1152449,81.3096161 82.3012006,73.1577897 90.7926435,73.1577897 C93.3543078,73.1577897 96.4377926,74.5649502 98.38276,76.2632474 C98.7148276,76.5543841 99.1892098,76.5543841 99.4738392,76.2632474 L102.509886,72.9151758 C102.841953,72.5755164 102.841953,72.0417659 102.509886,71.7021064 C99.4738392,68.5966488 95.8210956,66.7527833 90.7926435,66.7527833 C78.1266366,66.7527833 74.2841401,77.0881346 74.2841401,84.1724599 C74.2841401,91.4508764 78.1266366,101.640659 90.7926435,101.640659 C95.678781,101.640659 99.3789628,100.039408 102.415009,97.2250867 C102.794515,96.8369045 102.984268,96.3516768 102.984268,95.8179262 L102.984268,83.929846 C102.984268,83.4931411 102.604762,83.1049588 102.177818,83.1049588 L90.5080141,83.1049588 C90.08107,83.1049588 89.7015642,83.4931411 89.7015642,83.929846 L89.7015642,88.490987 C89.7015642,88.927692 90.08107,89.3158742 90.5080141,89.3158742 L96.2480397,89.3158742 Z M133.10548,87.617577 C133.532424,87.617577 133.91193,87.2293948 133.91193,86.7926898 L133.91193,82.1345033 C133.91193,81.6977983 133.532424,81.3096161 133.10548,81.3096161 L121.483115,81.3096161 L121.483115,73.5459719 L136.568471,73.5459719 C136.995415,73.5459719 137.374921,73.1577897 137.374921,72.7210847 L137.374921,68.0628982 C137.374921,67.6261932 136.995415,67.238011 136.568471,67.238011 L115.600774,67.238011 C115.17383,67.238011 114.794324,67.6261932 114.794324,68.0628982 L114.794324,100.379067 C114.794324,100.815772 115.17383,101.203954 115.600774,101.203954 L136.568471,101.203954 C136.995415,101.203954 137.374921,100.815772 137.374921,100.379067 L137.374921,95.7208807 C137.374921,95.2841757 136.995415,94.8959935 136.568471,94.8959935 L121.483115,94.8959935 L121.483115,87.617577 L133.10548,87.617577 Z M155.446823,100.379067 C155.446823,100.815772 155.826329,101.203954 156.253273,101.203954 L161.42404,101.203954 C161.850984,101.203954 162.23049,100.815772 162.23049,100.379067 L162.23049,73.5459719 L170.484742,73.5459719 C170.911686,73.5459719 171.291191,73.1577897 171.291191,72.7210847 L171.291191,68.0628982 C171.291191,67.6261932 170.911686,67.238011 170.484742,67.238011 L147.287448,67.238011 C146.860504,67.238011 146.480998,67.6261932 146.480998,68.0628982 L146.480998,72.7210847 C146.480998,73.1577897 146.860504,73.5459719 147.287448,73.5459719 L155.446823,73.5459719 L155.446823,100.379067 Z M188.556644,87.617577 L202.408607,87.617577 L202.408607,100.379067 C202.408607,100.815772 202.788112,101.203954 203.215056,101.203954 L208.290947,101.203954 C208.717891,101.203954 209.097397,100.815772 209.097397,100.379067 L209.097397,68.0628982 C209.097397,67.6261932 208.717891,67.238011 208.290947,67.238011 L203.215056,67.238011 C202.788112,67.238011 202.408607,67.6261932 202.408607,68.0628982 L202.408607,81.3096161 L188.556644,81.3096161 L188.556644,68.0628982 C188.556644,67.6261932 188.177138,67.238011 187.750194,67.238011 L182.626865,67.238011 C182.199921,67.238011 181.820416,67.6261932 181.820416,68.0628982 L181.820416,100.379067 C181.820416,100.815772 182.199921,101.203954 182.626865,101.203954 L187.750194,101.203954 C188.177138,101.203954 188.556644,100.815772 188.556644,100.379067 L188.556644,87.617577 Z M240.072497,87.617577 C240.499441,87.617577 240.878947,87.2293948 240.878947,86.7926898 L240.878947,82.1345033 C240.878947,81.6977983 240.499441,81.3096161 240.072497,81.3096161 L228.450131,81.3096161 L228.450131,73.5459719 L243.535488,73.5459719 C243.962432,73.5459719 244.341938,73.1577897 244.341938,72.7210847 L244.341938,68.0628982 C244.341938,67.6261932 243.962432,67.238011 243.535488,67.238011 L222.567791,67.238011 C222.140847,67.238011 221.761341,67.6261932 221.761341,68.0628982 L221.761341,100.379067 C221.761341,100.815772 222.140847,101.203954 222.567791,101.203954 L243.535488,101.203954 C243.962432,101.203954 244.341938,100.815772 244.341938,100.379067 L244.341938,95.7208807 C244.341938,95.2841757 243.962432,94.8959935 243.535488,94.8959935 L228.450131,94.8959935 L228.450131,87.617577 L240.072497,87.617577 Z M262.698469,89.4129198 L267.157663,89.4129198 L272.233553,100.476113 C272.423306,100.912818 272.897688,101.203954 273.372071,101.203954 L279.064658,101.203954 C279.444164,101.203954 279.681355,100.815772 279.53904,100.476113 L273.941329,88.3454187 C277.688949,86.6956443 280.487805,83.1534816 280.487805,78.2526812 C280.487805,73.740063 277.736388,67.238011 268.628248,67.238011 L256.863567,67.238011 C256.436623,67.238011 256.057117,67.6261932 256.057117,68.0628982 L256.057117,100.379067 C256.057117,100.815772 256.436623,101.203954 256.863567,101.203954 L261.892019,101.203954 C262.318964,101.203954 262.698469,100.815772 262.698469,100.379067 L262.698469,89.4129198 Z M269.055192,83.0564361 L262.698469,83.0564361 L262.698469,73.4974492 L268.865439,73.4974492 C272.897688,73.4974492 273.751576,76.6029068 273.751576,78.2526812 C273.751576,79.7568873 272.897688,82.9593905 269.055192,83.0564361 Z" id="TOGETHER"></path>
                        </g>
                    </g>
                    <path d="M11.6543639,122.484094 L22.1231696,146.100968 C22.2251385,146.343015 22.0551904,146.61964 21.7832733,146.61964 L17.602549,146.61964 C17.2626527,146.61964 16.9227564,146.412172 16.8207875,146.06639 L14.7474202,140.948824 L7.40566033,140.948824 L5.3662826,146.06639 C5.23032408,146.412172 4.92441742,146.61964 4.58452114,146.61964 L0.369807162,146.61964 C0.097890131,146.61964 -0.0720580131,146.343015 0.0299108734,146.100968 L10.4647269,122.484094 C10.5666958,122.276625 10.8046232,122.103734 11.0425506,122.103734 C11.3144676,122.103734 11.552395,122.276625 11.6543639,122.484094 Z M11.0765402,131.647303 L8.93519363,137.076072 L13.2178869,137.076072 L11.0765402,131.647303 Z M31.0284524,146.61964 C31.334359,146.61964 31.6062761,146.343015 31.6062761,146.031812 L31.6062761,132.546335 L45.2361172,146.550484 C45.440055,146.723375 45.6779824,146.827109 45.9498994,146.827109 C46.1878268,146.827109 46.357775,146.654219 46.357775,146.412172 L46.357775,123.002766 C46.357775,122.691563 46.0858579,122.414938 45.7799513,122.414938 L42.1090714,122.414938 C41.8031647,122.414938 41.5312477,122.691563 41.5312477,123.002766 L41.5312477,136.142462 L28.037365,122.484094 C27.7994376,122.242047 27.5275206,122.138313 27.2216139,122.138313 C26.9836865,122.138313 26.7797488,122.345781 26.7797488,122.622407 L26.7797488,146.031812 C26.7797488,146.343015 27.0516658,146.61964 27.3575724,146.61964 L31.0284524,146.61964 Z M61.6191183,146.61964 L53.7335244,146.61964 C53.4276178,146.61964 53.1557007,146.343015 53.1557007,146.031812 L53.1557007,123.002766 C53.1557007,122.691563 53.4276178,122.414938 53.7335244,122.414938 L61.6191183,122.414938 C70.6603596,122.414938 73.3795299,129.434302 73.3795299,134.482711 C73.3795299,139.669433 70.6603596,146.61964 61.6191183,146.61964 Z M57.9142488,142.124481 L61.6191183,142.124481 C67.6352826,142.124481 68.519013,136.453665 68.519013,134.482711 C68.519013,132.511757 67.6352826,126.875519 61.6191183,126.875519 L57.9142488,126.875519 L57.9142488,142.124481 Z M99.5175544,135.79668 L107.301179,122.93361 C107.437138,122.691563 107.26719,122.414938 107.029262,122.414938 L102.848538,122.414938 C102.474652,122.414938 102.168745,122.622407 101.964808,122.93361 L97.1042908,131.370678 L92.2437739,122.93361 C92.0398361,122.622407 91.6999398,122.414938 91.3600435,122.414938 L87.2133088,122.414938 C86.9753814,122.414938 86.8054333,122.691563 86.9413918,122.93361 L94.7250168,135.865837 L94.7250168,146.031812 C94.7250168,146.343015 94.9969338,146.61964 95.3028405,146.61964 L98.9397308,146.61964 C99.2456374,146.61964 99.5175544,146.343015 99.5175544,146.031812 L99.5175544,135.79668 Z M122.494544,122 C131.501795,122 134.254955,129.434302 134.254955,134.482711 C134.254955,139.669433 131.501795,147 122.494544,147 C113.419313,147 110.666153,139.669433 110.666153,134.482711 C110.666153,129.434302 113.419313,122 122.494544,122 Z M122.494544,142.470263 C128.476718,142.470263 129.360449,136.453665 129.360449,134.482711 C129.360449,132.511757 128.476718,126.564315 122.494544,126.564315 C116.4104,126.564315 115.560659,132.511757 115.560659,134.482711 C115.560659,136.453665 116.4104,142.470263 122.494544,142.470263 Z M148.802516,142.401107 C145.131636,142.401107 144.179927,138.632089 144.179927,137.214385 L144.179927,123.002766 C144.179927,122.691563 143.90801,122.414938 143.602103,122.414938 L139.931223,122.414938 C139.625316,122.414938 139.353399,122.691563 139.353399,123.002766 L139.353399,137.214385 C139.353399,141.294606 141.800653,146.861687 148.802516,146.861687 C155.80438,146.861687 158.251633,141.294606 158.251633,137.214385 L158.251633,123.002766 C158.251633,122.691563 157.979716,122.414938 157.673809,122.414938 L153.96894,122.414938 C153.663033,122.414938 153.391116,122.691563 153.391116,123.002766 L153.391116,137.214385 C153.391116,138.632089 152.473396,142.401107 148.802516,142.401107 Z M194.24665,127.013831 C194.484577,126.771784 194.484577,126.391425 194.28064,126.183956 C191.969345,123.694329 189.250175,122.069156 185.375357,122.069156 C176.300126,122.069156 173.546966,129.434302 173.546966,134.482711 C173.546966,139.669433 176.300126,146.930844 185.375357,146.930844 C188.978258,146.930844 191.731417,145.51314 194.110691,143.26556 C194.348619,143.023513 194.348619,142.643154 194.144681,142.401107 L192.173283,139.946058 C191.969345,139.704011 191.595459,139.669433 191.357532,139.876902 C189.760019,141.190871 187.482714,142.297372 185.409346,142.297372 C179.325203,142.297372 178.441473,136.453665 178.441473,134.482711 C178.441473,132.511757 179.291213,126.633472 185.375357,126.633472 C187.380745,126.633472 189.726029,127.843707 191.119604,129.261411 C191.323542,129.503458 191.697428,129.538036 191.901366,129.295989 L194.24665,127.013831 Z M209.575973,122.484094 L220.044778,146.100968 C220.146747,146.343015 219.976799,146.61964 219.704882,146.61964 L215.524158,146.61964 C215.184261,146.61964 214.844365,146.412172 214.742396,146.06639 L212.669029,140.948824 L205.327269,140.948824 L203.287891,146.06639 C203.151933,146.412172 202.846026,146.61964 202.50613,146.61964 L198.291416,146.61964 C198.019499,146.61964 197.849551,146.343015 197.95152,146.100968 L208.386336,122.484094 C208.488304,122.276625 208.726232,122.103734 208.964159,122.103734 C209.236076,122.103734 209.474004,122.276625 209.575973,122.484094 Z M208.998149,131.647303 L206.856802,137.076072 L211.139496,137.076072 L208.998149,131.647303 Z M228.950061,146.61964 C229.255968,146.61964 229.527885,146.343015 229.527885,146.031812 L229.527885,132.546335 L243.157726,146.550484 C243.361664,146.723375 243.599591,146.827109 243.871508,146.827109 C244.109435,146.827109 244.279384,146.654219 244.279384,146.412172 L244.279384,123.002766 C244.279384,122.691563 244.007467,122.414938 243.70156,122.414938 L240.03068,122.414938 C239.724773,122.414938 239.452856,122.691563 239.452856,123.002766 L239.452856,136.142462 L225.958974,122.484094 C225.721046,122.242047 225.449129,122.138313 225.143223,122.138313 C224.905295,122.138313 224.701357,122.345781 224.701357,122.622407 L224.701357,146.031812 C224.701357,146.343015 224.973274,146.61964 225.279181,146.61964 L228.950061,146.61964 Z M259.098862,139.289073 C258.792955,139.392808 258.623007,139.738589 258.724976,140.049793 C259.914613,143.784232 262.089949,146.827109 267.222383,146.827109 C274.292226,146.827109 275.923728,141.156293 275.923728,137.179806 L275.923728,123.002766 C275.923728,122.691563 275.651811,122.414938 275.345904,122.414938 L271.641035,122.414938 C271.335128,122.414938 271.063211,122.691563 271.063211,123.002766 L271.063211,137.179806 C271.063211,138.493776 270.893263,142.089903 267.222383,142.193638 C264.945078,142.262794 263.755441,140.499308 263.007669,138.459198 C262.9057,138.147994 262.599794,138.009682 262.293887,138.113416 L259.098862,139.289073 Z M293.190459,122 C302.197711,122 304.950871,129.434302 304.950871,134.482711 C304.950871,139.669433 302.197711,147 293.190459,147 C284.115229,147 281.362069,139.669433 281.362069,134.482711 C281.362069,129.434302 284.115229,122 293.190459,122 Z M293.190459,142.470263 C299.172634,142.470263 300.056365,136.453665 300.056365,134.482711 C300.056365,132.511757 299.172634,126.564315 293.190459,126.564315 C287.106316,126.564315 286.256575,132.511757 286.256575,134.482711 C286.256575,136.453665 287.106316,142.470263 293.190459,142.470263 Z M315.215739,123.002766 C315.215739,122.691563 314.943822,122.414938 314.637915,122.414938 L310.967035,122.414938 C310.661129,122.414938 310.389212,122.691563 310.389212,123.002766 L310.389212,146.031812 C310.389212,146.343015 310.661129,146.61964 310.967035,146.61964 L314.637915,146.61964 C314.943822,146.61964 315.215739,146.343015 315.215739,146.031812 L315.215739,123.002766 Z M326.262368,146.61964 C326.568275,146.61964 326.840192,146.343015 326.840192,146.031812 L326.840192,132.546335 L340.470033,146.550484 C340.673971,146.723375 340.911898,146.827109 341.183815,146.827109 C341.421743,146.827109 341.591691,146.654219 341.591691,146.412172 L341.591691,123.002766 C341.591691,122.691563 341.319774,122.414938 341.013867,122.414938 L337.342987,122.414938 C337.037081,122.414938 336.765164,122.691563 336.765164,123.002766 L336.765164,136.142462 L323.271281,122.484094 C323.033354,122.242047 322.761437,122.138313 322.45553,122.138313 C322.217603,122.138313 322.013665,122.345781 322.013665,122.622407 L322.013665,146.031812 C322.013665,146.343015 322.285582,146.61964 322.591488,146.61964 L326.262368,146.61964 Z M367.695726,142.401107 C364.024846,142.401107 363.073136,138.632089 363.073136,137.214385 L363.073136,123.002766 C363.073136,122.691563 362.801219,122.414938 362.495313,122.414938 L358.824433,122.414938 C358.518526,122.414938 358.246609,122.691563 358.246609,123.002766 L358.246609,137.214385 C358.246609,141.294606 360.693862,146.861687 367.695726,146.861687 C374.697589,146.861687 377.144843,141.294606 377.144843,137.214385 L377.144843,123.002766 C377.144843,122.691563 376.872926,122.414938 376.567019,122.414938 L372.862149,122.414938 C372.556243,122.414938 372.284326,122.691563 372.284326,123.002766 L372.284326,137.214385 C372.284326,138.632089 371.366606,142.401107 367.695726,142.401107 Z M387.47769,128.846473 C387.545669,127.152144 389.041213,126.598893 390.706705,126.598893 C392.780072,126.598893 395.363284,127.567082 396.756859,128.15491 C397.062765,128.258645 397.402661,128.120332 397.53862,127.809129 L398.796236,124.80083 C398.932195,124.489627 398.796236,124.143845 398.524319,124.005533 C394.75147,122.311203 391.658414,122.034578 390.366808,122.034578 C385.880177,122.034578 382.651163,124.662517 382.651163,129.08852 C382.651163,134.344398 387.47769,135.520055 391.080591,136.661134 C393.391885,137.387275 395.159346,138.320885 394.887429,140.049793 C394.649502,141.467497 393.153958,142.366528 391.080591,142.366528 C388.939244,142.366528 386.831887,141.640387 384.72453,140.637621 C384.452613,140.499308 384.078727,140.637621 383.942768,140.914246 L382.379246,143.922545 C382.243287,144.19917 382.345256,144.57953 382.617173,144.717842 C385.336343,146.135546 387.953545,146.896266 391.318518,146.896266 C396.281004,146.896266 399.747946,143.887967 399.985873,139.946058 C400.29178,134.759336 395.567222,133.237898 391.862352,131.958506 C389.517068,131.128631 387.545669,130.471646 387.47769,128.846473 Z" id="AND-YOU-CAN-JOIN-US" fill="#FFFFFF"></path>
                </g>
                <g id="Group-4" opacity="0.7">
                    <circle id="Oval-2" fill="#664E4C" cx="3.5" cy="81.5" r="3.5"></circle>
                    <circle id="Oval-2-Copy-5" fill="#4C4C4D" cx="12" cy="239" r="4"></circle>
                    <circle id="Oval-2-Copy-4" fill="#FFFFFF" cx="522.5" cy="15.5" r="3.5"></circle>
                    <circle id="Oval-2-Copy-6" fill="#747475" cx="334" cy="10" r="6"></circle>
                    <circle id="Oval-2-Copy-8" fill="#FFFFFF" cx="525.5" cy="220.5" r="4.5"></circle>
                    <circle id="Oval-2-Copy-3" fill="#FFFFFF" cx="14.5" cy="154.5" r="2.5"></circle>
                    <circle id="Oval-2-Copy-2" fill="#747475" cx="435" cy="314" r="6"></circle>
                    <circle id="Oval-2-Copy" fill="#747475" cx="207.5" cy="284.5" r="3.5"></circle>
                    <circle id="Oval-2-Copy-7" fill="#664E4C" cx="291.5" cy="309.5" r="3.5"></circle>
                    <path d="M66.3333333,28.6666667 L66.3333333,24.8392944 C66.3333333,23.8278314 65.512522,23 64.5,23 C63.4804188,23 62.6666667,23.8234802 62.6666667,24.8392944 L62.6666667,28.6666667 L58.8392944,28.6666667 C57.8278314,28.6666667 57,29.487478 57,30.5 C57,31.5195812 57.8234802,32.3333333 58.8392944,32.3333333 L62.6666667,32.3333333 L62.6666667,36.1607056 C62.6666667,37.1721686 63.487478,38 64.5,38 C65.5195812,38 66.3333333,37.1765198 66.3333333,36.1607056 L66.3333333,32.3333333 L70.1607056,32.3333333 C71.1721686,32.3333333 72,31.512522 72,30.5 C72,29.4804188 71.1765198,28.6666667 70.1607056,28.6666667 L66.3333333,28.6666667 Z" id="Combined-Shape" fill="#747475"></path>
                    <path d="M433.295455,22.2045455 L433.295455,21.0392859 C433.295455,20.1955907 432.603531,19.5 431.75,19.5 C430.890518,19.5 430.204545,20.1891618 430.204545,21.0392859 L430.204545,22.2045455 L429.039286,22.2045455 C428.195591,22.2045455 427.5,22.896469 427.5,23.75 C427.5,24.6094816 428.189162,25.2954545 429.039286,25.2954545 L430.204545,25.2954545 L430.204545,26.4607141 C430.204545,27.3044093 430.896469,28 431.75,28 C432.609482,28 433.295455,27.3108382 433.295455,26.4607141 L433.295455,25.2954545 L434.460714,25.2954545 C435.304409,25.2954545 436,24.603531 436,23.75 C436,22.8905184 435.310838,22.2045455 434.460714,22.2045455 L433.295455,22.2045455 Z" id="Combined-Shape-Copy-3" fill="#FFFFFF"></path>
                    <path d="M543,73 L543,70.4937831 C543,69.1274379 541.880712,68 540.5,68 C539.109662,68 538,69.1165047 538,70.4937831 L538,73 L535.493783,73 C534.127438,73 533,74.1192881 533,75.5 C533,76.8903379 534.116505,78 535.493783,78 L538,78 L538,80.5062169 C538,81.8725621 539.119288,83 540.5,83 C541.890338,83 543,81.8834953 543,80.5062169 L543,78 L545.506217,78 C546.872562,78 548,76.8807119 548,75.5 C548,74.1096621 546.883495,73 545.506217,73 L543,73 Z" id="Combined-Shape-Copy-4" fill="#664E4C"></path>
                    <path d="M495,284.5 L495,282.992017 C495,281.900176 494.104569,281 493,281 C491.88773,281 491,281.891856 491,282.992017 L491,284.5 L489.492017,284.5 C488.400176,284.5 487.5,285.395431 487.5,286.5 C487.5,287.61227 488.391856,288.5 489.492017,288.5 L491,288.5 L491,290.007983 C491,291.099824 491.895431,292 493,292 C494.11227,292 495,291.108144 495,290.007983 L495,288.5 L496.507983,288.5 C497.599824,288.5 498.5,287.604569 498.5,286.5 C498.5,285.38773 497.608144,284.5 496.507983,284.5 L495,284.5 Z" id="Combined-Shape-Copy-5" fill="#664E4C"></path>
                    <path d="M521,139.5 L521,138.504739 C521,137.668316 520.328427,137 519.5,137 C518.665797,137 518,137.673695 518,138.504739 L518,139.5 L517.004739,139.5 C516.168316,139.5 515.5,140.171573 515.5,141 C515.5,141.834203 516.173695,142.5 517.004739,142.5 L518,142.5 L518,143.495261 C518,144.331684 518.671573,145 519.5,145 C520.334203,145 521,144.326305 521,143.495261 L521,142.5 L521.995261,142.5 C522.831684,142.5 523.5,141.828427 523.5,141 C523.5,140.165797 522.826305,139.5 521.995261,139.5 L521,139.5 Z" id="Combined-Shape-Copy-6" fill="#747475"></path>
                    <path d="M367,293 L367,290.493783 C367,289.127438 365.880712,288 364.5,288 C363.109662,288 362,289.116505 362,290.493783 L362,293 L359.493783,293 C358.127438,293 357,294.119288 357,295.5 C357,296.890338 358.116505,298 359.493783,298 L362,298 L362,300.506217 C362,301.872562 363.119288,303 364.5,303 C365.890338,303 367,301.883495 367,300.506217 L367,298 L369.506217,298 C370.872562,298 372,296.880712 372,295.5 C372,294.109662 370.883495,293 369.506217,293 L367,293 Z" id="Combined-Shape-Copy-7" fill="#747475"></path>
                    <path d="M147,3 L147,0.997030139 C147,0.453036308 146.552285,0 146,0 C145.443865,0 145,0.446385598 145,0.997030139 L145,3 L142.99703,3 C142.453036,3 142,3.44771525 142,4 C142,4.55613518 142.446386,5 142.99703,5 L145,5 L145,7.00296986 C145,7.54696369 145.447715,8 146,8 C146.556135,8 147,7.5536144 147,7.00296986 L147,5 L149.00297,5 C149.546964,5 150,4.55228475 150,4 C150,3.44386482 149.553614,3 149.00297,3 L147,3 Z" id="Combined-Shape-Copy-9" fill="#747475"></path>
                    <path d="M153.954545,321.045455 L153.954545,318.460715 C153.954545,317.655158 153.303323,317 152.5,317 C151.691076,317 151.045455,317.653984 151.045455,318.460715 L151.045455,321.045455 L148.460715,321.045455 C147.655158,321.045455 147,321.696677 147,322.5 C147,323.308924 147.653984,323.954545 148.460715,323.954545 L151.045455,323.954545 L151.045455,326.539285 C151.045455,327.344842 151.696677,328 152.5,328 C153.308924,328 153.954545,327.346016 153.954545,326.539285 L153.954545,323.954545 L156.539285,323.954545 C157.344842,323.954545 158,323.303323 158,322.5 C158,321.691076 157.346016,321.045455 156.539285,321.045455 L153.954545,321.045455 Z" id="Combined-Shape-Copy-8" fill="#FFFFFF"></path>
                    <path d="M232.803571,35.6964286 L232.803571,34.0559695 C232.803571,32.9216536 231.884156,32 230.75,32 C229.607937,32 228.696429,32.9204889 228.696429,34.0559695 L228.696429,35.6964286 L227.05597,35.6964286 C225.921654,35.6964286 225,36.6158438 225,37.75 C225,38.8920633 225.920489,39.8035714 227.05597,39.8035714 L228.696429,39.8035714 L228.696429,41.4440305 C228.696429,42.5783464 229.615844,43.5 230.75,43.5 C231.892063,43.5 232.803571,42.5795111 232.803571,41.4440305 L232.803571,39.8035714 L234.44403,39.8035714 C235.578346,39.8035714 236.5,38.8841562 236.5,37.75 C236.5,36.6079367 235.579511,35.6964286 234.44403,35.6964286 L232.803571,35.6964286 Z" id="Combined-Shape-Copy-2" fill="#664E4C"></path>
                    <path d="M75,281.5 L75,279.992017 C75,278.900176 74.1045695,278 73,278 C71.8877296,278 71,278.891856 71,279.992017 L71,281.5 L69.492017,281.5 C68.4001762,281.5 67.5,282.395431 67.5,283.5 C67.5,284.61227 68.3918564,285.5 69.492017,285.5 L71,285.5 L71,287.007983 C71,288.099824 71.8954305,289 73,289 C74.1122704,289 75,288.108144 75,287.007983 L75,285.5 L76.507983,285.5 C77.5998238,285.5 78.5,284.604569 78.5,283.5 C78.5,282.38773 77.6081436,281.5 76.507983,281.5 L75,281.5 Z" id="Combined-Shape-Copy" fill="#664E4C"></path>
                </g>
            </g>
        </g>
    </g>
</svg>